<?xml version="1.0" standalone="no"?>
<!DOCTYPE svg PUBLIC "-//W3C//DTD SVG 20010904//EN"
 "http://www.w3.org/TR/2001/REC-SVG-20010904/DTD/svg10.dtd">
<svg version="1.0" xmlns="http://www.w3.org/2000/svg"
 width="1402.000000pt" height="1402.000000pt" viewBox="0 0 1402.000000 1402.000000"
 preserveAspectRatio="xMidYMid meet">
<metadata>
Created by potrace 1.14, written by Peter Selinger 2001-2017
</metadata>
<g transform="translate(0.000000,1402.000000) scale(0.100000,-0.100000)"
fill="#000000" stroke="none">
<path d="M537 9898 c-7 -3 -129 -121 -271 -261 l-258 -254 0 -1664 c0 -915 1
-1673 1 -1685 1 -20 6 -20 289 -23 158 -1 351 -3 430 -4 l142 -3 1 71 c0 38 1
741 2 1560 l2 1490 825 0 825 0 78 -38 c135 -67 245 -187 324 -354 l36 -75 -2
-862 c-2 -473 -4 -1252 -4 -1731 l-2 -870 -125 -129 c-69 -71 -140 -143 -158
-159 l-33 -31 -902 -2 c-496 -2 -1087 -3 -1314 -4 l-412 0 -3 -22 c-2 -13 0
-43 3 -68 4 -25 10 -66 13 -91 30 -221 192 -448 394 -550 l67 -34 1385 1
c1258 0 1388 2 1423 17 20 9 37 14 37 11 0 -9 126 59 165 89 95 73 202 213
246 322 9 23 13 392 16 1565 2 844 4 1848 6 2230 l2 695 330 0 c404 0 455 -4
548 -44 105 -45 203 -129 277 -237 22 -31 366 -865 480 -1164 27 -70 129 -323
140 -345 5 -11 19 -45 30 -75 12 -30 28 -69 35 -85 7 -17 34 -84 59 -150 26
-66 53 -133 61 -150 7 -16 97 -238 199 -492 477 -1185 560 -1391 578 -1428
191 -383 544 -649 968 -730 14 -3 34 -7 45 -9 84 -18 305 -26 420 -15 127 12
167 19 270 43 233 56 488 217 716 453 128 132 187 211 298 398 56 94 105 177
111 185 5 8 44 75 87 149 43 73 87 149 98 167 11 18 44 75 74 126 29 51 64
109 76 128 13 19 175 294 360 610 307 522 407 692 644 1095 43 72 122 206 176
298 55 92 109 185 121 205 11 20 51 89 89 152 38 63 87 148 109 187 23 40 44
73 47 73 7 0 129 -204 129 -216 0 -3 8 -18 19 -32 10 -15 29 -47 43 -72 35
-63 60 -106 97 -168 17 -29 31 -55 31 -57 0 -2 21 -39 46 -82 40 -66 403 -699
461 -803 27 -47 82 -141 93 -160 6 -8 61 -105 123 -215 63 -110 128 -224 146
-253 17 -29 31 -55 31 -56 0 -2 43 -77 95 -167 52 -89 95 -163 95 -165 0 -2
14 -27 31 -56 18 -29 43 -73 57 -98 43 -77 56 -100 166 -289 58 -101 106 -185
106 -188 0 -3 8 -17 18 -31 11 -15 33 -52 49 -82 17 -30 67 -119 112 -197 44
-79 81 -145 81 -148 0 -2 -127 -1 -282 3 -624 15 -1535 8 -1763 -14 -244 -23
-425 -164 -537 -419 -32 -71 -78 -227 -78 -261 l0 -24 1478 2 1477 3 82 28
c153 52 275 153 333 273 47 97 63 175 64 309 1 132 -6 201 -30 291 -9 32 -17
64 -18 69 -3 15 -26 57 -106 195 -87 150 -104 179 -131 228 -12 20 -54 93 -94
162 -176 302 -290 499 -317 548 -17 30 -56 97 -87 150 -31 54 -60 104 -64 112
-4 8 -13 24 -20 35 -7 11 -30 51 -52 90 -22 38 -44 78 -50 87 -32 54 -121 208
-137 236 -37 66 -57 100 -128 222 -40 68 -81 138 -90 155 -9 16 -67 116 -127
220 -61 105 -121 208 -134 231 -73 126 -151 261 -159 274 -5 8 -42 71 -81 140
-39 69 -80 139 -89 155 -17 30 -145 252 -272 470 -38 66 -73 127 -78 135 -15
25 -365 632 -392 680 -76 135 -150 260 -157 264 -4 3 -40 -52 -81 -122 -41
-70 -137 -235 -214 -367 -135 -233 -200 -344 -295 -510 -25 -44 -50 -88 -56
-97 -14 -23 -163 -281 -196 -338 -15 -25 -106 -182 -204 -350 -98 -168 -183
-314 -189 -325 -46 -85 -202 -345 -206 -345 -3 0 -14 39 -24 88 -17 88 -22
106 -71 267 -58 191 -168 444 -271 625 -68 119 -216 335 -280 410 -12 14 -41
48 -64 75 -119 141 -317 329 -474 450 -22 17 -51 39 -65 51 -53 43 -269 183
-371 240 -196 111 -533 261 -562 252 -6 -2 -13 -14 -15 -27 -6 -44 -106 -333
-142 -416 -5 -11 -32 -76 -59 -145 -28 -69 -58 -141 -66 -161 l-15 -36 97 -38
c398 -155 760 -402 1002 -685 12 -14 30 -35 41 -47 253 -295 456 -774 505
-1188 3 -33 8 -68 10 -78 22 -121 22 -448 1 -597 -2 -14 -8 -50 -12 -80 -10
-76 -10 -77 -45 -212 -120 -467 -392 -890 -710 -1103 -214 -142 -428 -178
-627 -103 -117 43 -264 169 -339 289 -39 62 -184 360 -274 564 -32 72 -67 150
-78 175 -20 44 -145 338 -202 475 -16 39 -47 113 -69 165 -77 185 -293 739
-408 1045 -24 66 -55 147 -68 180 -12 33 -75 202 -140 375 -64 173 -120 325
-126 338 -17 41 -27 66 -109 282 -120 314 -158 385 -272 513 -180 202 -506
395 -853 505 -45 14 -253 16 -2053 16 -1102 1 -2009 -2 -2015 -6z"/>
</g>
</svg>
